# xmcd
#
# Track frame offsets: 
#        150
#        14894
#        29302
#        45153
#        58555
#        74794
#        88755
#        104778
#        122930
#        142007
#        153384
#        168412
#        185352
#        200813
#        216085
#        237146
#        249735
#        261701
#        278611
#        292723
#        311262
#        327532
#        342332
#
# Disc length: 4765 seconds
#
# Revision: 0
# Processed by: cddbd v1.5.2PL0 Copyright (c) Steve Scherf et al.
# Submitted via: ExactAudioCopy v1.1
#
DISCID=6b129b17
DTITLE=Various Artist - Radio 2 De Carnaval Collectie - CD 2
DYEAR=2017
DGENRE=Folklore
TTITLE0=Els De Schepper - Kom Uit De Kast
TTITLE1=Christoff - 't Is Weer Tijd Voor De Polonaise (Pluk De Dag)
TTITLE2=Willy Sommers - Laat De Zon In Je Hart
TTITLE3=Rita Deneve - De Allereerste Keer
TTITLE4=Dennie Christian - Rosamunde
TTITLE5=Eddy Wally - Ik Spring Uit 'n Vliegmachien
TTITLE6=Zangeres Zonder Naam - Mexico
TTITLE7=Joe Harris - Drink Rode Wijn
TTITLE8=Rob De Nijs - Malle Babbe
TTITLE9=Paul Boey - 'k Heb De Mot In Me Lijf
TTITLE10=Juul Kabas - Juul Kabas
TTITLE11=Alexander Curly - Guus (Kom Naar Huus)
TTITLE12=Isabelle A - Hé, Lekker Beest
TTITLE13=Danny Fabry - Ca C'Est La Vie
TTITLE14=Paul De Leeuw - Vlieg Met Me Mee
TTITLE15=Sergio - Lekkere Jongen
TTITLE16=Karin Kent - Dans Je De Hele Nacht Met Mij
TTITLE17=D-Me - Oh O O O Oh Ooh
TTITLE18=De Stoempers - Tsjakkiediekkie Boem Boem
TTITLE19=Sam Gooris - Laat Het Gras Maar Groeien
TTITLE20=Tom Waes - Dos Cervezas
TTITLE21=Frans Bauer - Heb Je Even Voor Mij
TTITLE22=Anja Yelles - Aangebrand, De Soep Is Aangebrand
EXTD=
EXTT0=
EXTT1=
EXTT2=
EXTT3=
EXTT4=
EXTT5=
EXTT6=
EXTT7=
EXTT8=
EXTT9=
EXTT10=
EXTT11=
EXTT12=
EXTT13=
EXTT14=
EXTT15=
EXTT16=
EXTT17=
EXTT18=
EXTT19=
EXTT20=
EXTT21=
EXTT22=
PLAYORDER=
